/* XPM */
<<<<<<< HEAD
static char *_288991f6b2c41fad2acc54e0e8a9269[] = {
/* columns rows colors chars-per-pixel */
"32 32 139 2 ",
"   c #00A46B",
".  c #00A56B",
"X  c #00A46C",
"o  c #01A46C",
"O  c #00A56C",
"+  c #01A56C",
"@  c #00A56D",
"#  c #00A66C",
"$  c #00A66D",
"%  c #03A66C",
"&  c #03A76C",
"*  c #02A66D",
"=  c #03A66D",
"-  c #05A66C",
";  c #05A66D",
":  c #00A86D",
">  c #00A86E",
",  c #00A96E",
"<  c #03A86E",
"1  c #04A86D",
"2  c #04A96F",
"3  c #06AA6F",
"4  c #08AA6F",
"5  c #0CAC6F",
"6  c #00AB70",
"7  c #02AB71",
"8  c #03AB71",
"9  c #06AA70",
"0  c #06AB70",
"q  c #07AB70",
"w  c #00AC70",
"e  c #00AC71",
"r  c #00AD71",
"t  c #01AD71",
"y  c #03AC70",
"u  c #00AE71",
"i  c #00AD72",
"p  c #03AD72",
"a  c #00AE72",
"s  c #00AF72",
"d  c #00AF73",
"f  c #06AC71",
"g  c #05AE72",
"h  c #06AF73",
"j  c #08AA70",
"k  c #08AB70",
"l  c #09AB70",
"z  c #09AB71",
"x  c #0AAA70",
"c  c #0BAA70",
"v  c #0FAB71",
"b  c #0AAC71",
"n  c #0CAC70",
"m  c #0DAC72",
"M  c #10AB70",
"N  c #10AB71",
"B  c #13AB72",
"V  c #13AC71",
"C  c #10AE71",
"Z  c #11AD72",
"A  c #13AC72",
"S  c #1AAC72",
"D  c #00B073",
"F  c #01B073",
"G  c #00B173",
"H  c #01B173",
"J  c #04B073",
"K  c #05B073",
"L  c #00B174",
"P  c #03B174",
"I  c #00B375",
"U  c #06B677",
"Y  c #00B778",
"T  c #03B778",
"R  c #03B979",
"E  c #04B878",
"W  c #02C889",
"Q  c #03C889",
"!  c #03C989",
"~  c #03C88A",
"^  c #02CA8A",
"/  c #00CC8C",
"(  c #00CD8C",
")  c #00CC8D",
"_  c #00CD8D",
"`  c #00CE8D",
"'  c #00CD8E",
"]  c #00CE8E",
"[  c #00CF8E",
"{  c #00CF8F",
"}  c #04CD8C",
"|  c #04CE8D",
" . c #00D08F",
".. c #01D08F",
"X. c #00D190",
"o. c #00D191",
"O. c #00D290",
"+. c #00D291",
"@. c #01D291",
"#. c #00D391",
"$. c #01D391",
"%. c #00D392",
"&. c #02D392",
"*. c #04D290",
"=. c #01D491",
"-. c #00D492",
";. c #01D492",
":. c #01D493",
">. c #00D593",
",. c #03D492",
"<. c #03D593",
"1. c #00D693",
"2. c #02D693",
"3. c #04D491",
"4. c #04D492",
"5. c #04D693",
"6. c #00D594",
"7. c #00D694",
"8. c #00D794",
"9. c #00D695",
"0. c #00D795",
"q. c #05D795",
"w. c #07D795",
"e. c #00D895",
"r. c #00D995",
"t. c #00DA95",
"y. c #00DA96",
"u. c #01DA96",
"i. c #00DB96",
"p. c #00DB97",
"a. c #07DA97",
"s. c #00DC97",
"d. c #01DC97",
"f. c #00DC98",
"g. c #00DD98",
"h. c #01E09A",
"j. c #00E49D",
"k. c #00E79F",
"l. c None",
/* pixels */
"l.l.l.l.l.l.l.l.l.l.l.l.l.l.l.l.l.l.l.l.l.l.l.l.l.l.l.l.l.l.l.l.",
"l.l.l.l.l.l.l.l.l.l.l.l.l.l.l.l.l.l.l.l.l.l.l.l.l.l.l.l.l.l.l.l.",
"l.l.l.l.l.l.l.l.l.l.l.l.l.l.l.j | 9.l.l.l.l.l.l.l.l.l.l.l.l.l.l.",
"l.l.l.l.l.l.l.l.l.l.l.l.l.n F 3 ! f.&.l.l.l.l.l.l.l.l.l.l.l.l.l.",
"l.l.l.l.l.l.l.l.l.l.l.5 p , o = ! '  .r.5.l.l.l.l.l.l.l.l.l.l.l.",
"l.l.l.l.l.l.l.l.l.n 3 F o o o K 5.' ' ( 9.=.=.l.l.l.l.l.l.l.l.l.",
"l.l.l.l.l.l.l.l.q F o o o d p M 5.&.r.( ' / r.=.l.l.l.l.l.l.l.l.",
"l.l.l.l.l.l.b F , o o , K M l.l.l.l.=.9.&.( ' ' f.=.l.l.l.l.l.l.",
"l.l.l.l.V y y o o o F q l.l.l.l.l.l.l.l.=.i.&.' ' &.r.=.l.l.l.l.",
"l.l.l.l.R o o o F 3 V l.l.l.l.l.l.l.l.l.l.l.&.i.' ' ' k.' l.l.l.",
"l.l.l.l.p o X = b l.l.l.l.l.l.l.l.l.l.l.l.l.l.=. .' ( r.l.l.l.l.",
"l.l.l.l.d o d 6 l.l.l.l.l.l.l.4 | l.l.l.l.l.l.l.( i.( i.l.l.l.l.",
"l.l.l.l.F X d 6 l.l.l.l.l.p d , ! f.&.l.l.l.l.l.l.i.' i.l.l.l.l.",
"l.l.l.l.F X d 6 l.l.l.l.P ,   3 ! ' &.h.a.l.l.l. .i.( i.l.l.l.l.",
"l.l.l.l.F X d d l.l.l.X F X , & ! ' ( =.r.l.l.l.l.i.' i.l.l.l.l.",
"l.l.l.l.F X d d l.l.l., F X o o ! ' ' r.9.l.l.l.l.f.' i.l.l.l.l.",
"l.l.l.l.d o d 6 l.l.l., F o o o ! ' ' r.r.l.l.l.l.i.( i.l.l.l.l.",
"l.l.l.l.d   d d l.l.l.X F # o o ~ ' ' =.9.l.l.l.l.f.' i.l.l.l.l.",
"l.l.l.l.F X d d l.l.l.l.E , X 3 ! ' ' j.5.l.l.l.l.f.' i.l.l.l.l.",
"l.l.l.l.F X d , l.l.l.l.l.3 F = ! i.=.l.l.l.l.l.l.i.( i.l.l.l.l.",
"l.l.l.l.F o d d l.l.l.l.l.l.N j ' w.l.l.l.l.l.l. .i.' i.l.l.l.l.",
"l.l.l.l.d o d d l.l.l.l.l.l.l.l.l.l.l.l.l.l.l.l. .' ' r.l.l.l.l.",
"l.l.l.l.E o d d l.l.l.l.l.l.l.l.l.l.l.l.l.l.&.i. .' ' j. .l.l.l.",
"l.l.l.l.V y F d l.l.l.l.l.l.l.l.l.l.l.l.=.r.&.' '  .i.=.l.l.l.l.",
"l.l.l.l.l.l.j d l.l.l.6 U A l.l.l.l.=. .r.' ' ' i.=.l.l.l.l.l.l.",
"l.l.l.l.l.l.l.l.l.l.l.6 d d c l.l.=.i.' / ' =.&.=.l.l.l.l.l.l.l.",
"l.l.l.l.l.l.l.l.l.l.l.d , X , K 5.&.' ' &.r.=.l.l.l.l.l.l.l.l.l.",
"l.l.l.l.l.l.l.l.l.l.l.V E X o - ! ' ' r.&.l.l.l.l.l.l.l.l.l.l.l.",
"l.l.l.l.l.l.l.l.l.l.l.l.l.c F = ~ r.&.=.l.l.l.l.l.l.l.l.l.l.l.l.",
"l.l.l.l.l.l.l.l.l.l.l.l.l.l.S j &.9.l.l.l.l.l.l.l.l.l.l.l.l.l.l.",
"l.l.l.l.l.l.l.l.l.l.l.l.l.l.l.l.l.l.l.l.l.l.l.l.l.l.l.l.l.l.l.l.",
"l.l.l.l.l.l.l.l.l.l.l.l.l.l.l.l.l.l.l.l.l.l.l.l.l.l.l.l.l.l.l.l."
=======
static char *bitcoin32[] = {
/* columns rows colors chars-per-pixel */
"32 32 144 2 ",
"   c #2A2037",
".  c #2A2138",
"X  c #2D233A",
"o  c #2E243C",
"O  c #2F263E",
"+  c #322A3F",
"@  c #322B3F",
"#  c #332B40",
"$  c #332E41",
"%  c #362E43",
"&  c #372F43",
"*  c #362D44",
"=  c #382F45",
"-  c #373043",
";  c #373044",
":  c #383046",
">  c #393148",
",  c #3C334C",
"<  c #3D344D",
"1  c #3F344F",
"2  c #40384C",
"3  c #40394C",
"4  c #403652",
"5  c #423653",
"6  c #443E51",
"7  c #463E52",
"8  c #43375A",
"9  c #493D5F",
"0  c #4B3E62",
"q  c #503E73",
"w  c #494154",
"e  c #4D4458",
"r  c #4F416A",
"t  c #50436A",
"y  c #52456D",
"u  c #585263",
"i  c #595364",
"p  c #5A5366",
"a  c #5D5768",
"s  c #524073",
"d  c #554671",
"f  c #514075",
"g  c #564677",
"h  c #584976",
"j  c #5B4D76",
"k  c #544378",
"l  c #544478",
"z  c #584779",
"x  c #584879",
"c  c #5A4B7A",
"v  c #5B4A7B",
"b  c #5B4B7B",
"n  c #5B4B7D",
"m  c #5C4B7D",
"M  c #5C4C7C",
"N  c #5D4C7C",
"B  c #5C4D7C",
"V  c #5F4F7F",
"C  c #605A6B",
"Z  c #655F6F",
"A  c #6D6776",
"S  c #5E4D80",
"D  c #604F80",
"F  c #615281",
"G  c #635482",
"H  c #645483",
"J  c #675885",
"K  c #685986",
"L  c #685A86",
"P  c #6A5B87",
"I  c #6A5C87",
"U  c #6D5B8A",
"Y  c #70638C",
"T  c #797383",
"R  c #7E7887",
"E  c #746691",
"W  c #766890",
"Q  c #7B6D94",
"!  c #7A6C95",
"~  c #7B6C98",
"^  c #81749A",
"/  c #83779B",
"(  c #83779C",
")  c #84779C",
"_  c #857B9A",
"`  c #878290",
"'  c #888292",
"]  c #8C8794",
"[  c #908B97",
"{  c #908A98",
"}  c #918C9A",
"|  c #948F9B",
" . c #95909C",
".. c #97949E",
"X. c #9388A8",
"o. c #9488AD",
"O. c #978CAF",
"+. c #988EAD",
"@. c #9A96A2",
"#. c #9C98A3",
"$. c #9C93B0",
"%. c #9E94B1",
"&. c #A095B2",
"*. c #A095B5",
"=. c #A299B4",
"-. c #A69DB7",
";. c #A89FBA",
":. c #A89FBC",
">. c #ADAAB3",
",. c #A9A1BA",
"<. c #ABA3BC",
"1. c #B1AFB7",
"2. c #B7B0C6",
"3. c #BBB5C9",
"4. c #BCB5C9",
"5. c #BFB8CB",
"6. c #C2BCCF",
"7. c #C4BECF",
"8. c #C2C0C6",
"9. c #C9C6CD",
"0. c #C8C3D3",
"q. c #CBC6D5",
"w. c #CCC7D6",
"e. c #CDCCD1",
"r. c #D3CEDC",
"t. c #D2D0D5",
"y. c #D5D4D8",
"u. c #D5D1DD",
"i. c #D9D6E1",
"p. c #DCD9E3",
"a. c #E1DEE7",
"s. c #E5E2EB",
"d. c #E9E7EE",
"f. c #EBE9EF",
"g. c #ECEAEC",
"h. c #EDEDEE",
"j. c #EEECF1",
"k. c #F0EFF3",
"l. c #F2F1F4",
"z. c #F4F2F6",
"x. c #F7F6F8",
"c. c #FBFBFB",
"v. c #FEFFFE",
"b. c None",
/* pixels */
"b.b.b.b.b.b.b.b.b.b.b.b.b.b.b.b.b.b.b.b.b.b.b.b.b.b.b.b.b.b.b.b.",
"b.b.b.b.b.b.b.b.b.b.b.b.b.b.b.b.b.b.b.b.b.b.b.b.b.b.b.b.b.b.b.b.",
"b.b.b.b.b.b.b.b.b.b.b.b.b.b.b.b.b.b.b.b.b.b.b.b.b.b.b.b.b.b.b.b.",
"b.b.b.b.b.b.b.b.b.b.b.b.g.e.>.} =.4.u.j.b.b.b.b.b.b.b.b.b.b.b.b.",
"b.b.b.b.b.b.b.h.t.1.| T p 2 + O s v G ~ o.;.5.i.j.b.b.b.b.b.b.b.",
"b.b.b.b.b.8.R a 7 #   b.b.b.b.b.b.b.b.b.b.f n P Q o.q.b.b.b.b.b.",
"b.b.b.b.b.]   b.b.b.b.b.D M M M M n B M b.b.b.b.b.f $.b.b.b.b.b.",
"b.b.b.b.b.[ b.$ 5 v D D S m v l v x n S D S M M M b.&.b.b.b.b.b.",
"b.b.b.b.b.[ b.% < h M v K / / / ~ / W M z M M F M b.&.b.b.b.b.b.",
"b.b.b.b.b.[ b.* : y M g X.l.k.k.l.l.x.p.^ z M S M b.&.b.b.b.b.b.",
"b.b.b.b.b.[ b.* % 9 M M V I K K I L Q w.x.E v M M b.&.b.b.b.b.b.",
"b.b.b.b.b.[ b.* - 4 M m g g g g g c l F f.3.l S M b.&.b.b.b.b.b.",
"b.b.b.b.b.[ b.* : - r ! 0.0.0.0.2.F v g 7.p.v S M b.&.b.b.b.b.b.",
"b.b.b.b.b.[ b.* : % 1 Y ,.,.,.,.%.M v g q.u.v M M b.&.b.b.b.b.b.",
"b.b.b.b.b.[ b.* : - - r l q s s f h f Y x.<.l S M b.&.b.b.b.b.b.",
"b.b.b.b.b.[ b.* : - % : j ^ / ( ) ) $.d.a.J B S M b.&.b.b.b.b.b.",
"b.b.b.b.b.[ b.* : ; % + p v.z.j.k.j.d.3.I v B S M b.&.b.b.b.b.b.",
"b.b.b.b.b.[ b.* : ; - + u c._ H K J F g v M n S M b.&.b.b.b.b.b.",
"b.b.b.b.b.[ b.* : ; * % u c.Z 8 h N N N M M M S M b.&.b.b.b.b.b.",
"b.b.b.b.b.[ b.% : ; % + u c.Z + , 0 g B S M M D M b.%.b.b.b.b.b.",
"b.b.b.b.b...b.* : : & @ i c.Z + - % : 4 0 t d b c b.-.b.b.b.b.b.",
"b.b.b.b.b.9.e b.: : = # i v.Z + ; % - % % % > > b.U w.b.b.b.b.b.",
"b.b.b.b.b.b.@.= b.: : % 3 A 7 % * * : % % : : b.M <.b.b.b.b.b.b.",
"b.b.b.b.b.b.b.{ = b.: : * + % % ; ; - : - % b.M *.b.b.b.b.b.b.b.",
"b.b.b.b.b.b.b.b.#.6 b.b.: : : : * : : ; b.b.H :.b.b.b.b.b.b.b.b.",
"b.b.b.b.b.b.b.b.b.6.C X b.b.: : : : b.b.k E 6.b.b.b.b.b.b.b.b.b.",
"b.b.b.b.b.b.b.b.b.b.h. .w . b.b.b.b.l H *.s.b.b.b.b.b.b.b.b.b.b.",
"b.b.b.b.b.b.b.b.b.b.b.b.y.` 2 o f F O.r.b.b.b.b.b.b.b.b.b.b.b.b.",
"b.b.b.b.b.b.b.b.b.b.b.b.b.b.e.' +.r.b.b.b.b.b.b.b.b.b.b.b.b.b.b.",
"b.b.b.b.b.b.b.b.b.b.b.b.b.b.b.b.b.b.b.b.b.b.b.b.b.b.b.b.b.b.b.b.",
"b.b.b.b.b.b.b.b.b.b.b.b.b.b.b.b.b.b.b.b.b.b.b.b.b.b.b.b.b.b.b.b.",
"b.b.b.b.b.b.b.b.b.b.b.b.b.b.b.b.b.b.b.b.b.b.b.b.b.b.b.b.b.b.b.b."
>>>>>>> 3cb3aa92098e45afdbb5a3121b74b2ebf7e1705e
};
